<svg width="94" height="94" viewBox="0 0 94 94" fill="none" xmlns="http://www.w3.org/2000/svg">
<g clip-path="url(#clip0_1794_2199)">
<path d="M86.169 0H39.169C37.0922 0.00248764 35.1012 0.828581 33.6327 2.29708C32.1643 3.76557 31.3382 5.75657 31.3357 7.83333V8.46L5.99326 14.5982C4.99304 14.8399 4.05025 15.2763 3.21874 15.8825C2.38723 16.4887 1.68331 17.2528 1.14719 18.1311C0.61106 19.0094 0.253239 19.9848 0.0941655 21.0014C-0.0649083 22.018 -0.0221178 23.0561 0.220092 24.0562L15.6988 88.009C15.9382 89.0105 16.3733 89.9548 16.9789 90.7876C17.5845 91.6204 18.3487 92.3253 19.2276 92.8618C20.1065 93.3983 21.0828 93.7558 22.1003 93.9137C23.1178 94.0717 24.1565 94.027 25.1567 93.7822L62.669 84.6955V90.8666C62.6692 91.4863 62.853 92.0919 63.1973 92.6071C63.5416 93.1222 64.0309 93.5237 64.6034 93.7608C65.1758 93.9979 65.8057 94.06 66.4135 93.9391C67.0212 93.8183 67.5794 93.52 68.0176 93.0819L72.069 89.0274L76.1204 93.0788C76.5584 93.5166 77.1164 93.8149 77.7238 93.9358C78.3313 94.0568 78.9609 93.995 79.5332 93.7583C80.1056 93.5216 80.5949 93.1206 80.9394 92.6059C81.284 92.0912 81.4683 91.486 81.469 90.8666V81.4666H86.169C88.2458 81.4641 90.2368 80.6381 91.7053 79.1696C93.1738 77.7011 93.9999 75.7101 94.0024 73.6333V7.83333C93.9999 5.75657 93.1738 3.76557 91.7053 2.29708C90.2368 0.828581 88.2458 0.00248764 86.169 0ZM62.669 81.4666L24.4173 90.7382C23.817 90.8834 23.194 90.9089 22.5839 90.8132C21.9738 90.7176 21.3885 90.5026 20.8615 90.1806C20.3345 89.8586 19.8762 89.436 19.5126 88.9367C19.1491 88.4375 18.8875 87.8715 18.7428 87.2711L3.26413 23.3198C3.11878 22.7189 3.09341 22.0953 3.18947 21.4846C3.28552 20.8739 3.50112 20.2881 3.82391 19.7608C4.14669 19.2336 4.57033 18.7752 5.07055 18.4119C5.57077 18.0486 6.13774 17.7876 6.739 17.6438L31.3357 11.6889V19.74L20.7528 22.3015C20.3803 22.3916 20.0537 22.6151 19.8348 22.9297C19.616 23.2443 19.5201 23.6283 19.5652 24.0089C19.6104 24.3895 19.7935 24.7403 20.0799 24.995C20.3663 25.2497 20.7362 25.3906 21.1194 25.391C21.2445 25.3911 21.3691 25.3763 21.4907 25.3471L31.3357 22.9673V27.813L22.6031 29.9233C22.2321 30.0146 21.9073 30.2383 21.6897 30.5524C21.4722 30.8664 21.3768 31.2491 21.4217 31.6285C21.4665 32.0079 21.6485 32.3578 21.9333 32.6125C22.218 32.8671 22.5861 33.0089 22.9681 33.0112C23.0927 33.012 23.2169 32.9973 23.3378 32.9674L31.3357 31.0357V35.8657L24.4423 37.5342C24.0698 37.6242 23.7432 37.8477 23.5243 38.1624C23.3055 38.477 23.2096 38.861 23.2547 39.2416C23.2999 39.6222 23.483 39.973 23.7694 40.2277C24.0558 40.4824 24.4257 40.6233 24.8089 40.6237C24.9336 40.6239 25.0578 40.6086 25.1787 40.5782L31.3357 39.0883V43.9199L26.28 45.1482C25.9072 45.2383 25.5804 45.4621 25.3616 45.777C25.1427 46.092 25.047 46.4763 25.0926 46.8571C25.1382 47.238 25.3219 47.5888 25.6089 47.8433C25.8959 48.0977 26.2662 48.238 26.6498 48.2377C26.7748 48.2377 26.8995 48.2229 27.0211 48.1938L31.3357 47.1441V73.6333C31.3382 75.7101 32.1643 77.7011 33.6327 79.1696C35.1012 80.6381 37.0922 81.4641 39.169 81.4666H62.669ZM78.3357 90.8666L74.2843 86.8152C73.6876 86.2452 72.8942 85.9272 72.069 85.9272C71.2438 85.9272 70.4504 86.2452 69.8538 86.8152L65.8024 90.8666V72.1434C66.4536 72.9192 67.3651 73.4313 68.3664 73.5841C69.3677 73.7369 70.3904 73.52 71.2434 72.9737L71.5097 72.803C71.6769 72.6952 71.8717 72.6379 72.0706 72.6379C72.2695 72.6379 72.4642 72.6952 72.6315 72.803L72.8931 72.969C73.7451 73.5177 74.7681 73.7368 75.7701 73.5851C76.772 73.4333 77.6843 72.9213 78.3357 72.145V90.8666ZM81.2184 67.116C81.1166 67.2188 80.9941 67.299 80.8591 67.3511C80.7241 67.4032 80.5795 67.4261 80.435 67.4183L80.1217 67.4042C79.3232 67.3634 78.5299 67.5541 77.8373 67.9535C77.1446 68.3529 76.5822 68.944 76.2176 69.6555L76.0734 69.936C76.0068 70.065 75.914 70.1787 75.8008 70.2697C75.6877 70.3607 75.5568 70.4271 75.4165 70.4646C75.2762 70.5021 75.1297 70.5098 74.9862 70.4873C74.8428 70.4648 74.7056 70.4125 74.5835 70.3339L74.3235 70.1678C73.6506 69.7373 72.8686 69.5085 72.0698 69.5085C71.271 69.5085 70.489 69.7373 69.8162 70.1678L69.553 70.3386C69.4311 70.418 69.2938 70.4706 69.1501 70.4927C69.0063 70.5149 68.8596 70.5061 68.7195 70.4671C68.5791 70.4292 68.4482 70.3624 68.3351 70.2709C68.2221 70.1794 68.1294 70.0654 68.0631 69.936L67.9205 69.6602C67.5678 68.9812 67.0359 68.4118 66.3824 68.0138C65.7289 67.6158 64.9789 67.4044 64.2138 67.4027C64.15 67.4027 64.0858 67.4027 64.021 67.4027L63.7077 67.4168C63.5629 67.4277 63.4174 67.4063 63.2819 67.354C63.1464 67.3017 63.0243 67.2198 62.9244 67.1144C62.8223 67.012 62.7427 66.8895 62.6907 66.7546C62.6386 66.6197 62.6152 66.4755 62.622 66.3311L62.6361 66.0177C62.6713 65.2202 62.4782 64.4292 62.0794 63.7376C61.6806 63.046 61.0927 62.4826 60.3848 62.1136L60.1044 61.9695C59.9754 61.9029 59.8617 61.81 59.7706 61.6969C59.6796 61.5838 59.6132 61.4529 59.5758 61.3126C59.5383 61.1723 59.5306 61.0257 59.5531 60.8823C59.5756 60.7388 59.6278 60.6017 59.7065 60.4796L59.8725 60.2195C60.303 59.5467 60.5318 58.7646 60.5318 57.9659C60.5318 57.1671 60.303 56.385 59.8725 55.7122L59.7017 55.449C59.6235 55.3266 59.5717 55.1892 59.5497 55.0456C59.5277 54.902 59.5359 54.7553 59.5738 54.6151C59.6117 54.4748 59.6784 54.344 59.7698 54.2311C59.8612 54.1181 59.9751 54.0255 60.1044 53.9591L60.3801 53.8166C61.0878 53.4484 61.6758 52.8859 62.0748 52.1952C62.4739 51.5044 62.6675 50.7141 62.633 49.9171L62.6189 49.6038C62.6119 49.4594 62.6352 49.3151 62.6873 49.1801C62.7393 49.0452 62.819 48.9227 62.9212 48.8204C63.0231 48.7176 63.1455 48.6375 63.2805 48.5853C63.4155 48.5332 63.5601 48.5103 63.7046 48.5181L64.0179 48.5322C64.8155 48.5676 65.6066 48.3746 66.2982 47.9757C66.9898 47.5769 67.5532 46.9889 67.9221 46.2809L68.0662 46.0005C68.1328 45.8714 68.2256 45.7577 68.3388 45.6667C68.4519 45.5757 68.5828 45.5093 68.7231 45.4718C68.8634 45.4344 69.0099 45.4266 69.1534 45.4491C69.2969 45.4716 69.434 45.5239 69.5561 45.6025L69.8162 45.7686C70.489 46.1998 71.2714 46.429 72.0706 46.429C72.8698 46.429 73.6522 46.1998 74.325 45.7686L74.5867 45.601C74.7091 45.5227 74.8465 45.4709 74.9901 45.4489C75.1337 45.4269 75.2803 45.4351 75.4206 45.473C75.5609 45.5109 75.6916 45.5776 75.8046 45.669C75.9176 45.7604 76.0102 45.8743 76.0766 46.0036L76.2191 46.2793C76.5862 46.9879 77.1485 47.5766 77.8395 47.9758C78.5305 48.375 79.3213 48.5681 80.1186 48.5322L80.4319 48.5181C80.5768 48.5067 80.7224 48.5279 80.8579 48.5803C80.9935 48.6326 81.1156 48.7147 81.2152 48.8204C81.3173 48.9228 81.3969 49.0454 81.449 49.1803C81.501 49.3151 81.5244 49.4594 81.5176 49.6038L81.5035 49.9171C81.4683 50.7147 81.6614 51.5057 82.0602 52.1973C82.459 52.8888 83.0469 53.4522 83.7548 53.8212L84.0352 53.9654C84.1643 54.032 84.2779 54.1248 84.369 54.238C84.46 54.3511 84.5264 54.482 84.5638 54.6223C84.6013 54.7626 84.609 54.9091 84.5865 55.0526C84.564 55.196 84.5118 55.3332 84.4332 55.4553L84.2671 55.7153C83.8366 56.3882 83.6078 57.1702 83.6078 57.969C83.6078 58.7678 83.8366 59.5498 84.2671 60.2226L84.4379 60.4858C84.5161 60.6083 84.5679 60.7457 84.5899 60.8893C84.6119 61.0329 84.6037 61.1795 84.5658 61.3198C84.5279 61.46 84.4612 61.5908 84.3698 61.7038C84.2784 61.8167 84.1645 61.9094 84.0352 61.9757L83.7595 62.1183C83.0518 62.4865 82.4638 63.049 82.0648 63.7397C81.6657 64.4305 81.4721 65.2207 81.5066 66.0177L81.5207 66.3311C81.5279 66.4758 81.5048 66.6204 81.4527 66.7556C81.4006 66.8907 81.3208 67.0135 81.2184 67.116ZM90.869 73.6333C90.869 74.8798 90.3738 76.0753 89.4924 76.9567C88.611 77.8381 87.4155 78.3333 86.169 78.3333H81.469V70.4122C82.4125 70.1946 83.2489 69.651 83.831 68.8772C84.413 68.1034 84.7034 67.1491 84.6509 66.1822L84.6368 65.8689C84.6281 65.6694 84.6768 65.4716 84.777 65.2989C84.8773 65.1262 85.0249 64.9859 85.2024 64.8944L85.4766 64.7519C85.9927 64.4851 86.4475 64.1135 86.8119 63.661C87.1763 63.2085 87.4423 62.6849 87.5928 62.1237C87.7434 61.5625 87.7752 60.9761 87.6862 60.4019C87.5972 59.8277 87.3895 59.2785 87.0761 58.7892L86.9054 58.5228C86.7972 58.3557 86.7397 58.161 86.7397 57.9619C86.7397 57.7629 86.7972 57.5682 86.9054 57.4011L87.0714 57.1394C87.3852 56.6505 87.5934 56.1015 87.6828 55.5275C87.7723 54.9534 87.7409 54.3671 87.5908 53.8059C87.4407 53.2447 87.1751 52.7209 86.8111 52.2682C86.447 51.8155 85.9925 51.4437 85.4766 51.1767L85.1977 51.0326C85.0201 50.9402 84.8726 50.7989 84.7727 50.6254C84.6728 50.4519 84.6245 50.2534 84.6337 50.0534L84.6478 49.7401C84.6752 49.16 84.5813 48.5806 84.3719 48.039C84.1626 47.4973 83.8425 47.0053 83.4321 46.5944C83.0217 46.1836 82.53 45.863 81.9886 45.653C81.4471 45.4431 80.8678 45.3485 80.2878 45.3754L79.9744 45.3895C79.7746 45.3999 79.5761 45.352 79.4031 45.2516C79.2301 45.1511 79.09 45.0025 79 44.8239L78.8574 44.5497C78.5906 44.0336 78.2191 43.5788 77.7665 43.2144C77.314 42.85 76.7904 42.584 76.2292 42.4334C75.668 42.2829 75.0816 42.2511 74.5074 42.3401C73.9333 42.429 73.384 42.6368 72.8947 42.9502L72.6315 43.1178C72.4645 43.2263 72.2697 43.284 72.0706 43.284C71.8715 43.284 71.6767 43.2263 71.5097 43.1178L71.2481 42.9517C70.7591 42.638 70.2101 42.4297 69.6361 42.3403C69.0621 42.2509 68.4757 42.2822 67.9145 42.4323C67.3533 42.5824 66.8296 42.848 66.3769 43.2121C65.9241 43.5761 65.5524 44.0307 65.2853 44.5466L65.1412 44.8255C65.0446 44.9995 64.9024 45.1439 64.7299 45.2433C64.5574 45.3426 64.3611 45.3932 64.162 45.3895L63.8487 45.3754C63.2687 45.3479 62.6893 45.4419 62.1476 45.6512C61.6059 45.8605 61.1139 46.1807 60.7031 46.5911C60.2922 47.0015 59.9716 47.4931 59.7617 48.0346C59.5517 48.576 59.4572 49.1553 59.484 49.7354L59.4981 50.0487C59.5068 50.2482 59.4581 50.446 59.3579 50.6187C59.2576 50.7914 59.11 50.9318 58.9325 51.0232L58.6583 51.1657C58.1422 51.4325 57.6874 51.8041 57.323 52.2566C56.9586 52.7092 56.6926 53.2328 56.5421 53.794C56.3915 54.3551 56.3597 54.9416 56.4487 55.5157C56.5377 56.0899 56.7455 56.6392 57.0588 57.1285L57.2295 57.3948C57.3377 57.5619 57.3952 57.7567 57.3952 57.9557C57.3952 58.1547 57.3377 58.3495 57.2295 58.5165L57.0635 58.7782C56.7498 59.2671 56.5415 59.8162 56.4521 60.3902C56.3626 60.9642 56.394 61.5506 56.5441 62.1118C56.6942 62.673 56.9598 63.1967 57.3238 63.6494C57.6879 64.1021 58.1424 64.4739 58.6583 64.7409L58.9372 64.885C59.1148 64.9775 59.2623 65.1188 59.3622 65.2923C59.4622 65.4658 59.5104 65.6642 59.5012 65.8642L59.4871 66.1775C59.4341 67.1452 59.7241 68.1006 60.3061 68.8755C60.8882 69.6504 61.7249 70.1951 62.669 70.4138V78.3333H39.169C37.9225 78.3333 36.727 77.8381 35.8456 76.9567C34.9642 76.0753 34.469 74.8798 34.469 73.6333V7.83333C34.469 6.58681 34.9642 5.39135 35.8456 4.50993C36.727 3.62851 37.9225 3.13333 39.169 3.13333H86.169C87.4155 3.13333 88.611 3.62851 89.4924 4.50993C90.3738 5.39135 90.869 6.58681 90.869 7.83333V73.6333Z" fill="white"/>
<path d="M72.0641 48.5667C70.2049 48.5667 68.3875 49.1179 66.8417 50.1508C65.2959 51.1837 64.0911 52.6518 63.3796 54.3694C62.6681 56.087 62.482 57.9771 62.8447 59.8005C63.2074 61.6239 64.1026 63.2988 65.4173 64.6134C66.7319 65.9281 68.4068 66.8233 70.2302 67.186C72.0536 67.5487 73.9437 67.3626 75.6613 66.6511C77.3789 65.9396 78.847 64.7348 79.8799 63.189C80.9128 61.6432 81.4641 59.8258 81.4641 57.9666C81.4616 55.4744 80.4704 53.0849 78.7081 51.3226C76.9458 49.5603 74.5563 48.5691 72.0641 48.5667ZM72.0641 64.2333C70.8246 64.2333 69.613 63.8658 68.5825 63.1772C67.5519 62.4886 66.7487 61.5099 66.2744 60.3648C65.8001 59.2197 65.676 57.9597 65.9178 56.7441C66.1596 55.5285 66.7565 54.4119 67.6329 53.5354C68.5093 52.659 69.6259 52.0622 70.8415 51.8204C72.0571 51.5786 73.3171 51.7027 74.4622 52.177C75.6073 52.6513 76.586 53.4545 77.2746 54.4851C77.9632 55.5156 78.3307 56.7272 78.3307 57.9666C78.3307 59.6287 77.6705 61.2226 76.4953 62.3978C75.32 63.5731 73.7261 64.2333 72.0641 64.2333Z" fill="white"/>
<path d="M43.8641 10.9667H40.7307C40.3152 10.9667 39.9167 11.1317 39.6229 11.4255C39.3291 11.7193 39.1641 12.1178 39.1641 12.5333C39.1641 12.9488 39.3291 13.3473 39.6229 13.6411C39.9167 13.9349 40.3152 14.1 40.7307 14.1H43.8641C44.2796 14.1 44.6781 13.9349 44.9719 13.6411C45.2657 13.3473 45.4307 12.9488 45.4307 12.5333C45.4307 12.1178 45.2657 11.7193 44.9719 11.4255C44.6781 11.1317 44.2796 10.9667 43.8641 10.9667Z" fill="white"/>
<path d="M84.5995 10.9667H51.6995C51.284 10.9667 50.8855 11.1317 50.5917 11.4255C50.2979 11.7193 50.1328 12.1178 50.1328 12.5333C50.1328 12.9488 50.2979 13.3473 50.5917 13.6411C50.8855 13.9349 51.284 14.1 51.6995 14.1H84.5995C85.015 14.1 85.4135 13.9349 85.7073 13.6411C86.0011 13.3473 86.1661 12.9488 86.1661 12.5333C86.1661 12.1178 86.0011 11.7193 85.7073 11.4255C85.4135 11.1317 85.015 10.9667 84.5995 10.9667Z" fill="white"/>
<path d="M43.8641 18.8H40.7307C40.3152 18.8 39.9167 18.965 39.6229 19.2589C39.3291 19.5527 39.1641 19.9511 39.1641 20.3667C39.1641 20.7822 39.3291 21.1806 39.6229 21.4745C39.9167 21.7683 40.3152 21.9333 40.7307 21.9333H43.8641C44.2796 21.9333 44.6781 21.7683 44.9719 21.4745C45.2657 21.1806 45.4307 20.7822 45.4307 20.3667C45.4307 19.9511 45.2657 19.5527 44.9719 19.2589C44.6781 18.965 44.2796 18.8 43.8641 18.8Z" fill="white"/>
<path d="M84.5995 18.8H51.6995C51.284 18.8 50.8855 18.965 50.5917 19.2589C50.2979 19.5527 50.1328 19.9511 50.1328 20.3667C50.1328 20.7822 50.2979 21.1806 50.5917 21.4745C50.8855 21.7683 51.284 21.9333 51.6995 21.9333H84.5995C85.015 21.9333 85.4135 21.7683 85.7073 21.4745C86.0011 21.1806 86.1661 20.7822 86.1661 20.3667C86.1661 19.9511 86.0011 19.5527 85.7073 19.2589C85.4135 18.965 85.015 18.8 84.5995 18.8Z" fill="white"/>
<path d="M43.8641 26.6334H40.7307C40.3152 26.6334 39.9167 26.7984 39.6229 27.0922C39.3291 27.386 39.1641 27.7845 39.1641 28.2C39.1641 28.6155 39.3291 29.014 39.6229 29.3078C39.9167 29.6016 40.3152 29.7667 40.7307 29.7667H43.8641C44.2796 29.7667 44.6781 29.6016 44.9719 29.3078C45.2657 29.014 45.4307 28.6155 45.4307 28.2C45.4307 27.7845 45.2657 27.386 44.9719 27.0922C44.6781 26.7984 44.2796 26.6334 43.8641 26.6334Z" fill="white"/>
<path d="M84.5995 26.6334H51.6995C51.284 26.6334 50.8855 26.7984 50.5917 27.0922C50.2979 27.386 50.1328 27.7845 50.1328 28.2C50.1328 28.6155 50.2979 29.014 50.5917 29.3078C50.8855 29.6016 51.284 29.7667 51.6995 29.7667H84.5995C85.015 29.7667 85.4135 29.6016 85.7073 29.3078C86.0011 29.014 86.1661 28.6155 86.1661 28.2C86.1661 27.7845 86.0011 27.386 85.7073 27.0922C85.4135 26.7984 85.015 26.6334 84.5995 26.6334Z" fill="white"/>
<path d="M43.8641 34.4667H40.7307C40.3152 34.4667 39.9167 34.6317 39.6229 34.9255C39.3291 35.2193 39.1641 35.6178 39.1641 36.0333C39.1641 36.4488 39.3291 36.8473 39.6229 37.1411C39.9167 37.435 40.3152 37.6 40.7307 37.6H43.8641C44.2796 37.6 44.6781 37.435 44.9719 37.1411C45.2657 36.8473 45.4307 36.4488 45.4307 36.0333C45.4307 35.6178 45.2657 35.2193 44.9719 34.9255C44.6781 34.6317 44.2796 34.4667 43.8641 34.4667Z" fill="white"/>
<path d="M59.5328 34.4667H51.6995C51.284 34.4667 50.8855 34.6317 50.5917 34.9255C50.2979 35.2193 50.1328 35.6178 50.1328 36.0333C50.1328 36.4488 50.2979 36.8473 50.5917 37.1411C50.8855 37.435 51.284 37.6 51.6995 37.6H59.5328C59.9483 37.6 60.3468 37.435 60.6406 37.1411C60.9344 36.8473 61.0995 36.4488 61.0995 36.0333C61.0995 35.6178 60.9344 35.2193 60.6406 34.9255C60.3468 34.6317 59.9483 34.4667 59.5328 34.4667Z" fill="white"/>
<path d="M13.8725 27.1958C14.0779 27.1528 14.2726 27.069 14.4449 26.9493C14.6173 26.8297 14.7639 26.6766 14.876 26.4992C14.9881 26.3219 15.0634 26.1238 15.0975 25.9167C15.1316 25.7097 15.1237 25.4979 15.0744 25.294C15.025 25.09 14.9352 24.8981 14.8103 24.7295C14.6854 24.5609 14.5278 24.4191 14.3471 24.3126C14.1663 24.2061 13.966 24.1369 13.758 24.1093C13.55 24.0817 13.3385 24.0961 13.1362 24.1517L10.0906 24.8896C9.71939 24.981 9.3944 25.205 9.17685 25.5193C8.9593 25.8337 8.8642 26.2167 8.90946 26.5963C8.95472 26.976 9.13722 27.3259 9.42258 27.5803C9.70794 27.8347 10.0765 27.976 10.4588 27.9775C10.5834 27.9783 10.7076 27.9636 10.8285 27.9337L13.8725 27.1958Z" fill="white"/>
<path d="M15.7164 34.8098C16.1203 34.7119 16.4687 34.4576 16.6851 34.1029C16.9015 33.7481 16.9681 33.3219 16.8703 32.918C16.7724 32.5141 16.5181 32.1657 16.1634 31.9493C15.8086 31.7329 15.3824 31.6663 14.9785 31.7642L11.9329 32.5021C11.5602 32.5922 11.2335 32.8158 11.0147 33.1306C10.7958 33.4454 10.7 33.8295 10.7454 34.2102C10.7908 34.591 10.9742 34.9418 11.2609 35.1964C11.5476 35.4509 11.9177 35.5915 12.3011 35.5915C12.4257 35.5918 12.5499 35.5765 12.6708 35.5461L15.7164 34.8098Z" fill="white"/>
<path d="M17.5586 42.4237C17.7633 42.3799 17.9571 42.2955 18.1286 42.1756C18.3001 42.0556 18.4458 41.9026 18.5572 41.7253C18.6686 41.5481 18.7433 41.3504 18.777 41.1438C18.8106 40.9373 18.8026 40.7261 18.7533 40.5227C18.704 40.3193 18.6144 40.1278 18.4899 39.9596C18.3654 39.7914 18.2084 39.6498 18.0282 39.5433C17.8481 39.4367 17.6484 39.3673 17.441 39.3393C17.2336 39.3112 17.0227 39.3249 16.8207 39.3797L13.7767 40.116C13.4041 40.2061 13.0775 40.4296 12.8587 40.7442C12.6398 41.0589 12.5439 41.4428 12.589 41.8234C12.6342 42.204 12.8173 42.5549 13.1037 42.8096C13.3901 43.0642 13.76 43.2051 14.1433 43.2055C14.2683 43.2055 14.3929 43.1908 14.5146 43.1616L17.5586 42.4237Z" fill="white"/>
<path d="M18.666 47L15.6204 47.7379C15.2479 47.8279 14.9213 48.0514 14.7024 48.3661C14.4836 48.6807 14.3876 49.0647 14.4328 49.4453C14.478 49.8259 14.6611 50.1767 14.9475 50.4314C15.2339 50.6861 15.6037 50.827 15.987 50.8273C16.1117 50.8276 16.2359 50.8123 16.3567 50.7819L19.4039 50.044C19.6086 50.0002 19.8024 49.9158 19.9739 49.7959C20.1454 49.6759 20.2911 49.5229 20.4025 49.3456C20.5139 49.1684 20.5886 48.9707 20.6223 48.7641C20.656 48.5576 20.6479 48.3464 20.5986 48.143C20.5493 47.9396 20.4597 47.7481 20.3352 47.5799C20.2107 47.4117 20.0537 47.2701 19.8736 47.1636C19.6934 47.057 19.4937 46.9876 19.2863 46.9596C19.0789 46.9315 18.868 46.9452 18.666 47Z" fill="white"/>
</g>
<defs>
<clipPath id="clip0_1794_2199">
<rect width="94" height="94" fill="white"/>
</clipPath>
</defs>
</svg>
