<svg width="17" height="25" viewBox="0 0 17 25" fill="none" xmlns="http://www.w3.org/2000/svg">
<path d="M15.7973 7.97155C16.0551 7.87254 16.1838 7.5833 16.0848 7.32552L14.4713 3.12473C14.3723 2.86695 14.083 2.73825 13.8253 2.83726C13.5675 2.93627 13.4388 3.22551 13.5378 3.48329L14.972 7.21732L11.238 8.65156C10.9802 8.75057 10.8515 9.03981 10.9505 9.29759C11.0495 9.55537 11.3388 9.68408 11.5966 9.58506L15.7973 7.97155ZM0.796725 1.45681L15.4148 7.96161L15.8213 7.04798L1.20327 0.543186L0.796725 1.45681Z" fill="white"/>
<path d="M15.7973 17.5324C16.0551 17.6314 16.1838 17.9206 16.0848 18.1784L14.4713 22.3792C14.3723 22.637 14.083 22.7657 13.8253 22.6666C13.5675 22.5676 13.4388 22.2784 13.5378 22.0206L14.972 18.2866L11.238 16.8523C10.9802 16.7533 10.8515 16.4641 10.9505 16.2063C11.0495 15.9485 11.3388 15.8198 11.5966 15.9188L15.7973 17.5324ZM0.796725 24.0471L15.4148 17.5423L15.8213 18.4559L1.20327 24.9607L0.796725 24.0471Z" fill="white"/>
<line y1="11.5" x2="16" y2="11.5" stroke="white"/>
<line y1="14.5" x2="16" y2="14.5" stroke="white"/>
</svg>
